<?xml version="1.0" standalone="no"?>
<!DOCTYPE svg PUBLIC "-//W3C//DTD SVG 1.1//EN" "http://www.w3.org/Graphics/SVG/1.1/DTD/svg11.dtd">
<svg width="100%" height="100%" viewBox="0 0 1024 1024" version="1.1" xmlns="http://www.w3.org/2000/svg" xmlns:xlink="http://www.w3.org/1999/xlink" xml:space="preserve" style="fill-rule:evenodd;clip-rule:evenodd;stroke-linejoin:round;stroke-miterlimit:1.41421;">
    <g transform="matrix(0.748754,0,0,0.628157,139.274,165.785)">
        <ellipse cx="466.286" cy="750" rx="233.74" ry="238" style="fill:rgb(255,159,0);"/>
    </g>
    <g transform="matrix(0.692587,0,0,0.692587,171.988,97.28)">
        <path d="M433,45C483,179 457,252 401,310C340,374 245,422 178,516C89,641 74,916 395,988C260,917 231,711 377,582C339,707 409,787 496,758C581,729 637,790 635,860C634,908 572.92,963.808 523.92,986.808C732.92,949.808 859,762 859,630C859,456 704,432 782,286C689,294 657,355 666,455C672,521 603,566 552,536C511,511 512,463 548,427C625,351 655,176 433,45Z" style="fill:rgb(255,88,0);fill-rule:nonzero;"/>
    </g>
</svg>
