<?xml version="1.0" standalone="no"?>
<!DOCTYPE svg PUBLIC "-//W3C//DTD SVG 1.1//EN" "http://www.w3.org/Graphics/SVG/1.1/DTD/svg11.dtd">
<svg width="100%" height="100%" viewBox="0 0 1024 1024" version="1.1" xmlns="http://www.w3.org/2000/svg" xmlns:xlink="http://www.w3.org/1999/xlink" xml:space="preserve" style="fill-rule:evenodd;clip-rule:evenodd;stroke-linejoin:round;stroke-miterlimit:1.41421;">
    <g transform="matrix(0.800912,0,0,0.800912,151.652,88.8046)">
        <path d="M445.836,110.891C445.836,110.891 514.209,239.281 596.676,307.312C674.234,371.293 741.969,452.108 741.969,559.813C741.969,720.998 611.107,851.859 449.922,851.859C288.737,851.859 157.875,720.998 157.875,559.813C157.875,455.584 225.475,380.353 294.848,312.349C388.327,220.715 445.836,110.891 445.836,110.891Z" style="fill:rgb(31,202,255);"/>
    </g>
    <g transform="matrix(0.936476,0.340063,-0.383815,1.05696,257.227,-331.105)">
        <path d="M490.187,791.529C346.597,773.689 342.2,610.573 431.141,515.511C446.353,499.253 432.233,666.375 507.936,665.495C542.923,665.088 575.389,664.524 599.206,699.528C630.232,745.128 576.392,802.239 490.187,791.529Z" style="fill:rgb(185,239,255);"/>
    </g>
</svg>
