<?xml version="1.0" standalone="no"?>
<!DOCTYPE svg PUBLIC "-//W3C//DTD SVG 1.1//EN" "http://www.w3.org/Graphics/SVG/1.1/DTD/svg11.dtd">
<svg width="100%" height="100%" viewBox="0 0 1024 1024" version="1.1" xmlns="http://www.w3.org/2000/svg" xmlns:xlink="http://www.w3.org/1999/xlink" xml:space="preserve" style="fill-rule:evenodd;clip-rule:evenodd;stroke-linejoin:round;stroke-miterlimit:1.41421;">
    <g transform="matrix(0.354449,-5.55112e-17,5.55112e-17,0.354449,370.913,347.399)">
        <path d="M462.662,71.811C462.662,53.98 448.185,39.503 430.354,39.503L365.737,39.503C347.905,39.503 333.428,53.98 333.428,71.811L333.428,856.962C333.428,874.793 347.905,889.27 365.737,889.27L430.354,889.27C448.185,889.27 462.662,874.793 462.662,856.962L462.662,71.811Z" style="fill:black;"/>
    </g>
    <g transform="matrix(5.55112e-17,0.354449,-0.354449,5.55112e-17,676.6,370.913)">
        <path d="M462.662,71.811C462.662,53.98 448.185,39.503 430.354,39.503L365.737,39.503C347.905,39.503 333.428,53.98 333.428,71.811L333.428,856.962C333.428,874.793 347.905,889.27 365.737,889.27L430.354,889.27C448.185,889.27 462.662,874.793 462.662,856.962L462.662,71.811Z" style="fill:black;"/>
    </g>
</svg>
